<svg fill="#ffffff" height="200px" width="200px" version="1.1" id="Layer_1" xmlns="http://www.w3.org/2000/svg" xmlns:xlink="http://www.w3.org/1999/xlink" viewBox="0 0 512 512" xml:space="preserve" stroke="#ffffff"><g id="SVGRepo_bgCarrier" stroke-width="0"></g><g id="SVGRepo_tracerCarrier" stroke-linecap="round" stroke-linejoin="round"></g><g id="SVGRepo_iconCarrier"> <g> <g> <path d="M501.801,81.696H10.199C4.566,81.696,0,86.262,0,91.895v286.187c0,5.633,4.566,10.199,10.199,10.199h193.335 l-21.624,21.624h-29.432c-5.633,0-10.199,4.566-10.199,10.199c0,5.633,4.566,10.199,10.199,10.199h207.044 c5.633,0,10.199-4.566,10.199-10.199c0-5.633-4.566-10.199-10.199-10.199H330.09l-21.624-21.624h193.335 c5.633,0,10.199-4.566,10.199-10.199V91.895C512,86.262,507.434,81.696,501.801,81.696z M210.758,409.904l21.624-21.624h47.235 l21.623,21.624H210.758z M491.602,367.883H20.398V102.095h471.203V367.883z"></path> </g> </g> <g> <g> <path d="M42.837,215.1c-5.633,0-10.199,4.566-10.199,10.199v4.08c0,5.633,4.566,10.199,10.199,10.199 c5.633,0,10.199-4.566,10.199-10.199v-4.08C53.036,219.666,48.47,215.1,42.837,215.1z"></path> </g> </g> <g> <g> <path d="M42.837,250.797c-5.633,0-10.199,4.566-10.199,10.199v83.633c0,5.633,4.566,10.199,10.199,10.199 c5.633,0,10.199-4.566,10.199-10.199v-83.633C53.036,255.363,48.47,250.797,42.837,250.797z"></path> </g> </g> </g></svg>